<svg xmlns="http://www.w3.org/2000/svg" xmlns:xlink="http://www.w3.org/1999/xlink" x="0px" y="0px"
	 viewBox="0 0 146.4 145" >
	 <title>Jarrod Semmens Window Cleaning Icon</title>
  <style>
    path { fill: #499e8f; }
    @media (prefers-color-scheme: dark) {
      path { fill: #f8f8f8; }
    }
  </style>
<path d="M102.6,89.1c1.2-7.2,3.2-15,3.7-22.9c1-14.6,6.3-26.4,18-35.8c7.7-6.1,14.2-13.8,21.3-20.8c-3.3-3.3-6.2-6.2-9.7-9.6
	c-8.4,8.6-17.1,16.8-25,25.6c-6.5,7.3-13.6,12.2-23.7,12.4c-3.4,0.1-6.9,1.1-10.3,1.7c-7.1,1.2-14.2,2.5-20.1,3.5
	C72.1,58.5,87.5,73.9,102.6,89.1z M87,53.3c0.7-0.2,3.6,2.6,3.4,3.4c-1.1,3.5-2.9,6.7-4.7,10.5c-3.4-3.4-5.8-5.7-9.2-9
	C80.3,56.3,83.5,54.5,87,53.3z"/>
<path d="M106.4,94.9c5.4,6.2,11.3,11.9,17.4,18.1c1.6-1.7,2.5-2.8,3.1-3.4c-7.3-7.2-14.2-14-21.5-21.2
	C105.6,90.5,105.2,93.4,106.4,94.9z"/>
<path d="M8-0.7C5.4,2,2.3,5,0,7.3C46.4,53.9,92.4,99.8,137.6,145c2.7-2.4,5.9-5.4,8.4-7.6C100.1,91.5,54.1,45.5,8-0.7L8-0.7z"/>
<path d="M49,37.8c2.9,3.1,5.5,3.4,8.4,1.7c-6.9-7-13.7-13.9-20.6-21c-1,0.9-2.2,1.9-3.9,3.4C38.7,27.6,44.1,32.5,49,37.8z"/>
</svg>
